<?xml version="1.0" standalone="no"?>
<!DOCTYPE svg PUBLIC "-//W3C//DTD SVG 20010904//EN"
 "http://www.w3.org/TR/2001/REC-SVG-20010904/DTD/svg10.dtd">
<svg version="1.0" xmlns="http://www.w3.org/2000/svg"
 width="700.000000pt" height="700.000000pt" viewBox="0 0 700.000000 700.000000"
 preserveAspectRatio="xMidYMid meet">
<metadata>
Created by potrace 1.14, written by Peter Selinger 2001-2017
</metadata>
<g transform="translate(0.000000,700.000000) scale(0.100000,-0.100000)"
fill="#000000" stroke="none">
<path d="M40 3500 l0 -3460 3460 0 3460 0 0 3460 0 3460 -3460 0 -3460 0 0
-3460z m3820 1040 l0 -700 710 0 710 0 0 -365 0 -365 -707 -2 -708 -3 -3 -698
-2 -697 -360 0 -360 0 -2 697 -3 698 -707 3 -708 2 0 365 0 365 710 0 710 0 0
700 0 700 360 0 360 0 0 -700z"/>
</g>
</svg>
